<svg width="2128" height="458" viewBox="0 0 2128 458" fill="none" xmlns="http://www.w3.org/2000/svg">
<path d="M2094.48 219.897C2134.07 189.878 2112.97 123.724 2069.92 108.692C2060.4 104.957 2050.6 103.183 2039.9 103.183H1936.5V353.605C1942.57 353.605 2053.77 353.605 2053.77 353.605C2073.71 353.605 2092.75 346.369 2106.62 333.11C2137.81 303.371 2134.3 242.166 2094.48 219.897ZM1986.73 153.79H2038.41C2051.72 153.79 2062.97 163.314 2062.36 177.18C2062.92 190.485 2051.67 201.736 2038.41 201.129H1986.73V153.79ZM2051.16 303.978H1986.73V249.683H2051.16C2064.46 249.122 2075.71 264.109 2075.11 277.414C2075.39 290.112 2064.42 304.538 2051.16 303.978ZM1838.6 112.753C1823 106.684 1805.96 103.229 1786.91 103.229H1693.59V353.652H1786.87C1806.8 353.652 1824.68 350.477 1840.28 344.128C1887.94 325.64 1914.79 278.581 1914.23 228.02C1914.83 177.74 1886.54 130.961 1838.6 112.753ZM1860.82 228.861C1861.38 268.45 1828.47 304.538 1788.6 303.931H1742.98V154.07H1788.6C1828.75 153.183 1861.38 189.878 1860.82 228.861Z" fill="url(#paint0_linear_2_52)"/>
<path d="M1621.41 103.229V353.651H1671.37V103.229H1621.41Z" fill="white"/>
<path d="M1501.81 163.313C1448.07 163.313 1404.75 206.078 1404.75 258.599C1404.75 311.121 1448.07 353.885 1501.81 353.885C1518.85 353.885 1535 349.543 1548.87 341.747V353.885H1598.82V258.599C1598.87 206.031 1555.82 163.313 1501.81 163.313ZM1501.53 307.993C1473.23 307.993 1450.97 285.77 1450.97 258.039C1450.97 230.868 1473.79 208.085 1501.53 208.085C1529.82 208.085 1552.09 230.308 1552.09 258.039C1551.81 285.77 1528.98 307.993 1501.53 307.993Z" fill="white"/>
<path d="M1284.63 163.313C1342.38 161.585 1392.94 217.048 1380.52 275.966H1238.41C1251.71 312.661 1299.94 320.457 1322.72 289.271H1377.06C1354.24 356.872 1263.85 375.36 1215.02 325.966C1152.65 264.387 1199.75 162.753 1284.63 163.313ZM1330.85 241.558C1314.09 198.234 1255.45 198.234 1238.73 241.558H1330.85Z" fill="white"/>
<path d="M1175.47 163.313C1132.71 163.313 1094.89 191.045 1082.19 231.475C1079.3 240.999 1077.85 250.803 1077.85 260.933V353.651H1127.81C1127.81 353.651 1127.81 264.715 1127.81 260.933C1128.97 227.74 1152.36 210.98 1175.47 210.98V163.313Z" fill="white"/>
<path d="M1066.6 163.313C1023.84 163.313 986.025 191.045 973.326 231.475C970.432 240.999 968.984 250.803 968.984 260.933V353.651H1018.94C1018.94 353.651 1018.94 264.715 1018.94 260.933C1020.11 227.74 1043.49 210.98 1066.6 210.98V163.313Z" fill="white"/>
<path d="M896.199 163.313V256.031C893.305 322.185 802.921 322.185 800.587 256.031V163.313H750.633V256.031C750.633 266.162 752.36 275.966 754.975 285.49C767.673 325.92 805.535 353.651 848.253 353.651C890.97 353.651 929.113 325.92 941.811 285.49C944.706 275.966 946.153 266.162 946.153 256.031V163.313H896.199Z" fill="white"/>
<path d="M659.642 207.478C638.54 204.303 613.423 200.241 596.99 186.983C586.299 178.626 590.921 165.32 601.892 158.084C623.554 144.219 659.642 152.015 666.879 177.412H723.462C723.462 132.08 674.675 102.621 629.016 103.182C603.619 103.182 579.623 109.251 561.415 124.284C539.193 141.884 528.222 175.965 542.088 200.802C564.917 238.057 619.773 237.497 657.028 252.203C667.159 257.105 673.181 262.894 673.181 273.305C673.181 296.134 652.686 305.378 629.297 305.378C607.074 305.938 590.594 289.225 588.306 268.683H532.844C534.571 349.262 641.435 377.834 702.08 330.215C719.12 315.789 728.644 295.247 728.644 273.025C728.971 237.543 694.61 213.267 659.642 207.478Z" fill="white"/>
<path d="M196.377 120.549L305.248 180.914V156.637L196.377 96.3192C180.224 105.283 101.932 148.607 87.5059 156.404C100.811 163.92 241.709 241.605 327.237 288.665V312.614C315.659 318.964 196.377 384.837 196.377 384.837C163.744 366.91 98.197 330.542 65.5636 312.614V240.438L196.377 312.614L218.039 300.476L43.5746 204.303V324.753L196.05 409.067C211.083 400.711 337.275 331.102 348.526 324.753V276.526L130.784 156.077L196.377 120.549ZM43.9014 132.407V180.634L261.644 301.083L196.377 337.171L87.5059 276.806V301.083L196.377 361.168C212.53 352.204 290.823 308.88 305.248 301.083C291.943 293.567 151.325 215.882 65.5169 168.495V144.546C77.1417 138.196 196.377 72.3227 196.377 72.3227C229.011 90.2501 294.557 126.618 327.191 144.546V216.769L196.377 144.546L174.715 156.684L348.853 252.857V132.407L196.377 48.3729C181.391 56.7297 54.8726 126.338 43.9014 132.407ZM196.377 0.146484L0.296875 108.458V349.309L196.377 457.621L392.457 349.309V108.458L196.377 0.146484ZM370.562 337.171L196.424 433.344L21.9591 337.171V120.549L196.097 24.3764L370.235 120.549L370.562 337.171Z" fill="url(#paint1_linear_2_52)"/>
<defs>
<linearGradient id="paint0_linear_2_52" x1="1785.94" y1="49.9211" x2="1989.75" y2="402.932" gradientUnits="userSpaceOnUse">
<stop stop-color="#FF00A0"/>
<stop offset="1" stop-color="#9600FF"/>
</linearGradient>
<linearGradient id="paint1_linear_2_52" x1="95.2245" y1="53.6279" x2="297.575" y2="404.11" gradientUnits="userSpaceOnUse">
<stop stop-color="#FF00A0"/>
<stop offset="1" stop-color="#9600FF"/>
</linearGradient>
</defs>
</svg>
